<svg width="24" height="24" viewBox="0 0 24 24" fill="none" xmlns="http://www.w3.org/2000/svg">
<rect width="24" height="24" fill="#F5F5F5"/>
<g id="Desktop 1440" clip-path="url(#clip0_0_1)">
<rect width="1440" height="1509" transform="translate(-875 -1267)" fill="white"/>
<g id="footer">
<rect width="1440" height="325" transform="translate(-875 -83)" fill="#01ACA9"/>
<g id="Frame 50">
<g id="Frame 48">
<g id="entypo-social:facebook">
<path id="Vector" d="M20.5556 1H3.44444C2.1 1 1 2.1 1 3.44444V20.5556C1 21.9012 2.1 23 3.44444 23H12V14.4444H9.55556V11.4194H12V8.91389C12 6.269 13.4813 4.41122 16.6029 4.41122L18.8066 4.41367V7.59756H17.3436C16.1287 7.59756 15.6667 8.50933 15.6667 9.35511V11.4207H18.8053L18.1111 14.4444H15.6667V23H20.5556C21.9 23 23 21.9012 23 20.5556V3.44444C23 2.1 21.9 1 20.5556 1Z" fill="#F5E0F5"/>
</g>
</g>
</g>
</g>
</g>
<defs>
<clipPath id="clip0_0_1">
<rect width="1440" height="1509" fill="white" transform="translate(-875 -1267)"/>
</clipPath>
</defs>
</svg>
